<svg width="16" height="16" viewBox="0 0 16 16" fill="none" xmlns="http://www.w3.org/2000/svg">
<path fill-rule="evenodd" clip-rule="evenodd" d="M4.79998 4.79998V3.99998C4.79998 2.67449 5.87449 1.59998 7.19998 1.59998H8.79998C10.1255 1.59998 11.2 2.67449 11.2 3.99998V4.79998H12.8C13.6836 4.79998 14.4 5.51632 14.4 6.39998V9.25659C12.4077 9.99576 10.2519 10.3999 8 10.3999C5.74809 10.3999 3.59227 9.99576 1.59998 9.25657V6.39998C1.59998 5.51632 2.31632 4.79998 3.19998 4.79998H4.79998ZM6.39998 3.99998C6.39998 3.55815 6.75815 3.19998 7.19998 3.19998H8.79998C9.2418 3.19998 9.59998 3.55815 9.59998 3.99998V4.79998H6.39998V3.99998ZM7.19998 7.99998C7.19998 7.55815 7.55815 7.19998 7.99998 7.19998H8.00798C8.4498 7.19998 8.80798 7.55815 8.80798 7.99998C8.80798 8.4418 8.4498 8.79998 8.00798 8.79998H7.99998C7.55815 8.79998 7.19998 8.4418 7.19998 7.99998Z" fill="#111827"/>
<path d="M1.59998 10.9538V12.8C1.59998 13.6836 2.31632 14.4 3.19998 14.4H12.8C13.6836 14.4 14.4 13.6836 14.4 12.8V10.9538C12.3898 11.6323 10.2371 11.9999 8 11.9999C5.76288 11.9999 3.61021 11.6323 1.59998 10.9538Z" fill="#111827"/>
</svg>
